<mxfile host="app.diagrams.net" modified="2024-05-18T09:20:47.611Z" agent="Mozilla/5.0 (Windows NT 10.0; Win64; x64) AppleWebKit/537.36 (KHTML, like Gecko) Chrome/124.0.0.0 Safari/537.36 Edg/124.0.0.0" etag="h2VpXQ5e5qqIxSfuH2vw" version="24.4.4" type="github">
  <diagram name="第 1 页" id="TPGlx-IJjMsrrqkb_5Jd">
    <mxGraphModel dx="1733" dy="665" grid="1" gridSize="10" guides="1" tooltips="1" connect="1" arrows="1" fold="1" page="1" pageScale="1" pageWidth="827" pageHeight="1169" math="0" shadow="0">
      <root>
        <mxCell id="0" />
        <mxCell id="1" parent="0" />
        <mxCell id="-o6msmimUm7vwaIAHr0_-22" style="edgeStyle=orthogonalEdgeStyle;rounded=0;orthogonalLoop=1;jettySize=auto;html=1;exitX=0.5;exitY=1;exitDx=0;exitDy=0;entryX=0.5;entryY=0;entryDx=0;entryDy=0;" parent="1" source="-o6msmimUm7vwaIAHr0_-1" target="-o6msmimUm7vwaIAHr0_-2" edge="1">
          <mxGeometry relative="1" as="geometry" />
        </mxCell>
        <mxCell id="-o6msmimUm7vwaIAHr0_-23" style="edgeStyle=orthogonalEdgeStyle;rounded=0;orthogonalLoop=1;jettySize=auto;html=1;exitX=0.5;exitY=1;exitDx=0;exitDy=0;entryX=0.5;entryY=0;entryDx=0;entryDy=0;" parent="1" source="-o6msmimUm7vwaIAHr0_-1" target="-o6msmimUm7vwaIAHr0_-3" edge="1">
          <mxGeometry relative="1" as="geometry" />
        </mxCell>
        <mxCell id="-o6msmimUm7vwaIAHr0_-24" style="edgeStyle=orthogonalEdgeStyle;rounded=0;orthogonalLoop=1;jettySize=auto;html=1;exitX=0.5;exitY=1;exitDx=0;exitDy=0;" parent="1" source="-o6msmimUm7vwaIAHr0_-1" target="-o6msmimUm7vwaIAHr0_-5" edge="1">
          <mxGeometry relative="1" as="geometry" />
        </mxCell>
        <mxCell id="-o6msmimUm7vwaIAHr0_-25" style="edgeStyle=orthogonalEdgeStyle;rounded=0;orthogonalLoop=1;jettySize=auto;html=1;exitX=0.5;exitY=1;exitDx=0;exitDy=0;entryX=0.5;entryY=0;entryDx=0;entryDy=0;" parent="1" source="-o6msmimUm7vwaIAHr0_-1" target="-o6msmimUm7vwaIAHr0_-6" edge="1">
          <mxGeometry relative="1" as="geometry" />
        </mxCell>
        <mxCell id="-o6msmimUm7vwaIAHr0_-43" style="edgeStyle=orthogonalEdgeStyle;rounded=0;orthogonalLoop=1;jettySize=auto;html=1;exitX=0.5;exitY=1;exitDx=0;exitDy=0;entryX=0.5;entryY=0;entryDx=0;entryDy=0;" parent="1" source="-o6msmimUm7vwaIAHr0_-1" target="-o6msmimUm7vwaIAHr0_-38" edge="1">
          <mxGeometry relative="1" as="geometry" />
        </mxCell>
        <mxCell id="-o6msmimUm7vwaIAHr0_-1" value="问卷星系统" style="rounded=0;whiteSpace=wrap;html=1;" parent="1" vertex="1">
          <mxGeometry x="315" y="100" width="120" height="60" as="geometry" />
        </mxCell>
        <mxCell id="-o6msmimUm7vwaIAHr0_-26" style="edgeStyle=orthogonalEdgeStyle;rounded=0;orthogonalLoop=1;jettySize=auto;html=1;exitX=0.5;exitY=1;exitDx=0;exitDy=0;entryX=0.5;entryY=0;entryDx=0;entryDy=0;" parent="1" source="-o6msmimUm7vwaIAHr0_-2" target="-o6msmimUm7vwaIAHr0_-9" edge="1">
          <mxGeometry relative="1" as="geometry" />
        </mxCell>
        <mxCell id="-o6msmimUm7vwaIAHr0_-27" style="edgeStyle=orthogonalEdgeStyle;rounded=0;orthogonalLoop=1;jettySize=auto;html=1;exitX=0.5;exitY=1;exitDx=0;exitDy=0;entryX=0.5;entryY=0;entryDx=0;entryDy=0;" parent="1" source="-o6msmimUm7vwaIAHr0_-2" target="-o6msmimUm7vwaIAHr0_-7" edge="1">
          <mxGeometry relative="1" as="geometry" />
        </mxCell>
        <mxCell id="-o6msmimUm7vwaIAHr0_-28" style="edgeStyle=orthogonalEdgeStyle;rounded=0;orthogonalLoop=1;jettySize=auto;html=1;exitX=0.5;exitY=1;exitDx=0;exitDy=0;entryX=0.5;entryY=0;entryDx=0;entryDy=0;" parent="1" source="-o6msmimUm7vwaIAHr0_-2" target="-o6msmimUm7vwaIAHr0_-10" edge="1">
          <mxGeometry relative="1" as="geometry" />
        </mxCell>
        <mxCell id="756B_G3Txo1k5tEtxXgT-2" style="edgeStyle=orthogonalEdgeStyle;rounded=0;orthogonalLoop=1;jettySize=auto;html=1;exitX=0.5;exitY=1;exitDx=0;exitDy=0;entryX=0.5;entryY=0;entryDx=0;entryDy=0;" edge="1" parent="1" source="-o6msmimUm7vwaIAHr0_-2" target="756B_G3Txo1k5tEtxXgT-1">
          <mxGeometry relative="1" as="geometry" />
        </mxCell>
        <mxCell id="-o6msmimUm7vwaIAHr0_-2" value="用户模块" style="rounded=0;whiteSpace=wrap;html=1;" parent="1" vertex="1">
          <mxGeometry x="140" y="250" width="120" height="40" as="geometry" />
        </mxCell>
        <mxCell id="-o6msmimUm7vwaIAHr0_-29" style="edgeStyle=orthogonalEdgeStyle;rounded=0;orthogonalLoop=1;jettySize=auto;html=1;exitX=0.5;exitY=1;exitDx=0;exitDy=0;entryX=0.5;entryY=0;entryDx=0;entryDy=0;" parent="1" source="-o6msmimUm7vwaIAHr0_-3" target="-o6msmimUm7vwaIAHr0_-12" edge="1">
          <mxGeometry relative="1" as="geometry" />
        </mxCell>
        <mxCell id="-o6msmimUm7vwaIAHr0_-30" style="edgeStyle=orthogonalEdgeStyle;rounded=0;orthogonalLoop=1;jettySize=auto;html=1;exitX=0.5;exitY=1;exitDx=0;exitDy=0;entryX=0.5;entryY=0;entryDx=0;entryDy=0;" parent="1" source="-o6msmimUm7vwaIAHr0_-3" target="-o6msmimUm7vwaIAHr0_-13" edge="1">
          <mxGeometry relative="1" as="geometry" />
        </mxCell>
        <mxCell id="-o6msmimUm7vwaIAHr0_-31" style="edgeStyle=orthogonalEdgeStyle;rounded=0;orthogonalLoop=1;jettySize=auto;html=1;exitX=0.5;exitY=1;exitDx=0;exitDy=0;" parent="1" source="-o6msmimUm7vwaIAHr0_-3" target="-o6msmimUm7vwaIAHr0_-14" edge="1">
          <mxGeometry relative="1" as="geometry" />
        </mxCell>
        <mxCell id="-o6msmimUm7vwaIAHr0_-32" style="edgeStyle=orthogonalEdgeStyle;rounded=0;orthogonalLoop=1;jettySize=auto;html=1;exitX=0.5;exitY=1;exitDx=0;exitDy=0;entryX=0.5;entryY=0;entryDx=0;entryDy=0;" parent="1" source="-o6msmimUm7vwaIAHr0_-3" target="-o6msmimUm7vwaIAHr0_-11" edge="1">
          <mxGeometry relative="1" as="geometry" />
        </mxCell>
        <mxCell id="-o6msmimUm7vwaIAHr0_-33" style="edgeStyle=orthogonalEdgeStyle;rounded=0;orthogonalLoop=1;jettySize=auto;html=1;exitX=0.5;exitY=1;exitDx=0;exitDy=0;entryX=0.5;entryY=0;entryDx=0;entryDy=0;" parent="1" source="-o6msmimUm7vwaIAHr0_-3" target="-o6msmimUm7vwaIAHr0_-16" edge="1">
          <mxGeometry relative="1" as="geometry" />
        </mxCell>
        <mxCell id="-o6msmimUm7vwaIAHr0_-3" value="问卷模块" style="rounded=0;whiteSpace=wrap;html=1;" parent="1" vertex="1">
          <mxGeometry x="280" y="250" width="190" height="40" as="geometry" />
        </mxCell>
        <mxCell id="-o6msmimUm7vwaIAHr0_-34" style="edgeStyle=orthogonalEdgeStyle;rounded=0;orthogonalLoop=1;jettySize=auto;html=1;exitX=0.5;exitY=1;exitDx=0;exitDy=0;entryX=0.5;entryY=0;entryDx=0;entryDy=0;" parent="1" source="-o6msmimUm7vwaIAHr0_-5" target="-o6msmimUm7vwaIAHr0_-17" edge="1">
          <mxGeometry relative="1" as="geometry" />
        </mxCell>
        <mxCell id="-o6msmimUm7vwaIAHr0_-35" style="edgeStyle=orthogonalEdgeStyle;rounded=0;orthogonalLoop=1;jettySize=auto;html=1;exitX=0.5;exitY=1;exitDx=0;exitDy=0;entryX=0.5;entryY=0;entryDx=0;entryDy=0;" parent="1" source="-o6msmimUm7vwaIAHr0_-5" target="-o6msmimUm7vwaIAHr0_-18" edge="1">
          <mxGeometry relative="1" as="geometry" />
        </mxCell>
        <mxCell id="-o6msmimUm7vwaIAHr0_-5" value="数据管理模块" style="rounded=0;whiteSpace=wrap;html=1;" parent="1" vertex="1">
          <mxGeometry x="490" y="250" width="120" height="40" as="geometry" />
        </mxCell>
        <mxCell id="-o6msmimUm7vwaIAHr0_-36" style="edgeStyle=orthogonalEdgeStyle;rounded=0;orthogonalLoop=1;jettySize=auto;html=1;exitX=0.5;exitY=1;exitDx=0;exitDy=0;entryX=0.5;entryY=0;entryDx=0;entryDy=0;" parent="1" source="-o6msmimUm7vwaIAHr0_-6" target="-o6msmimUm7vwaIAHr0_-20" edge="1">
          <mxGeometry relative="1" as="geometry" />
        </mxCell>
        <mxCell id="-o6msmimUm7vwaIAHr0_-37" style="edgeStyle=orthogonalEdgeStyle;rounded=0;orthogonalLoop=1;jettySize=auto;html=1;exitX=0.5;exitY=1;exitDx=0;exitDy=0;entryX=0.5;entryY=0;entryDx=0;entryDy=0;" parent="1" source="-o6msmimUm7vwaIAHr0_-6" target="-o6msmimUm7vwaIAHr0_-21" edge="1">
          <mxGeometry relative="1" as="geometry" />
        </mxCell>
        <mxCell id="-o6msmimUm7vwaIAHr0_-6" value="填写模块" style="rounded=0;whiteSpace=wrap;html=1;" parent="1" vertex="1">
          <mxGeometry x="620" y="250" width="120" height="40" as="geometry" />
        </mxCell>
        <mxCell id="-o6msmimUm7vwaIAHr0_-7" value="用&lt;div&gt;户&lt;/div&gt;&lt;div&gt;注&lt;/div&gt;&lt;div&gt;册&lt;/div&gt;" style="rounded=0;whiteSpace=wrap;html=1;" parent="1" vertex="1">
          <mxGeometry x="120" y="370" width="30" height="100" as="geometry" />
        </mxCell>
        <mxCell id="-o6msmimUm7vwaIAHr0_-9" value="用&lt;div&gt;户&lt;/div&gt;&lt;div&gt;登&lt;/div&gt;&lt;div&gt;录&lt;/div&gt;" style="rounded=0;whiteSpace=wrap;html=1;" parent="1" vertex="1">
          <mxGeometry x="160" y="370" width="30" height="100" as="geometry" />
        </mxCell>
        <mxCell id="-o6msmimUm7vwaIAHr0_-10" value="&lt;div&gt;资&lt;/div&gt;&lt;div&gt;料&lt;/div&gt;&lt;div&gt;修&lt;/div&gt;&lt;div&gt;改&lt;/div&gt;" style="rounded=0;whiteSpace=wrap;html=1;" parent="1" vertex="1">
          <mxGeometry x="200" y="370" width="30" height="100" as="geometry" />
        </mxCell>
        <mxCell id="-o6msmimUm7vwaIAHr0_-11" value="&lt;span style=&quot;background-color: initial;&quot;&gt;截&lt;/span&gt;&lt;div&gt;&lt;span style=&quot;background-color: initial;&quot;&gt;止&lt;/span&gt;&lt;/div&gt;&lt;div&gt;&lt;span style=&quot;background-color: initial;&quot;&gt;问&lt;/span&gt;&lt;div&gt;卷&lt;/div&gt;&lt;/div&gt;" style="rounded=0;whiteSpace=wrap;html=1;" parent="1" vertex="1">
          <mxGeometry x="398.5" y="370" width="30" height="100" as="geometry" />
        </mxCell>
        <mxCell id="-o6msmimUm7vwaIAHr0_-12" value="创&lt;div&gt;建&lt;/div&gt;&lt;div&gt;问&lt;/div&gt;&lt;div&gt;卷&lt;/div&gt;" style="rounded=0;whiteSpace=wrap;html=1;" parent="1" vertex="1">
          <mxGeometry x="280" y="370" width="30" height="100" as="geometry" />
        </mxCell>
        <mxCell id="-o6msmimUm7vwaIAHr0_-13" value="编&lt;div&gt;辑&lt;/div&gt;&lt;div&gt;问&lt;/div&gt;&lt;div&gt;卷&lt;/div&gt;" style="rounded=0;whiteSpace=wrap;html=1;" parent="1" vertex="1">
          <mxGeometry x="320" y="370" width="30" height="100" as="geometry" />
        </mxCell>
        <mxCell id="-o6msmimUm7vwaIAHr0_-14" value="&lt;div&gt;发&lt;/div&gt;&lt;div&gt;布&lt;/div&gt;&lt;div&gt;问&lt;/div&gt;&lt;div&gt;卷&lt;/div&gt;" style="rounded=0;whiteSpace=wrap;html=1;" parent="1" vertex="1">
          <mxGeometry x="360" y="370" width="30" height="100" as="geometry" />
        </mxCell>
        <mxCell id="-o6msmimUm7vwaIAHr0_-16" value="删&lt;div&gt;除&lt;/div&gt;&lt;div&gt;问&lt;/div&gt;&lt;div&gt;卷&lt;/div&gt;" style="rounded=0;whiteSpace=wrap;html=1;" parent="1" vertex="1">
          <mxGeometry x="440" y="370" width="30" height="100" as="geometry" />
        </mxCell>
        <mxCell id="-o6msmimUm7vwaIAHr0_-17" value="查&lt;div&gt;看&lt;/div&gt;&lt;div&gt;填&lt;/div&gt;&lt;div&gt;写&lt;/div&gt;&lt;div&gt;记&lt;/div&gt;&lt;div&gt;录&lt;/div&gt;" style="rounded=0;whiteSpace=wrap;html=1;" parent="1" vertex="1">
          <mxGeometry x="490" y="370" width="30" height="100" as="geometry" />
        </mxCell>
        <mxCell id="-o6msmimUm7vwaIAHr0_-18" value="查&lt;div&gt;看&lt;/div&gt;&lt;div&gt;统&lt;/div&gt;&lt;div&gt;计&lt;/div&gt;&lt;div&gt;数&lt;/div&gt;&lt;div&gt;据&lt;/div&gt;" style="rounded=0;whiteSpace=wrap;html=1;" parent="1" vertex="1">
          <mxGeometry x="580" y="370" width="30" height="100" as="geometry" />
        </mxCell>
        <mxCell id="-o6msmimUm7vwaIAHr0_-20" value="填&lt;div&gt;写&lt;/div&gt;&lt;div&gt;问&lt;/div&gt;&lt;div&gt;卷&lt;/div&gt;" style="rounded=0;whiteSpace=wrap;html=1;" parent="1" vertex="1">
          <mxGeometry x="620" y="370" width="30" height="100" as="geometry" />
        </mxCell>
        <mxCell id="-o6msmimUm7vwaIAHr0_-21" value="个&lt;div&gt;人&lt;/div&gt;&lt;div&gt;填&lt;/div&gt;&lt;div&gt;写&lt;/div&gt;&lt;div&gt;信&lt;/div&gt;&lt;div&gt;息&lt;/div&gt;" style="rounded=0;whiteSpace=wrap;html=1;" parent="1" vertex="1">
          <mxGeometry x="710" y="370" width="30" height="100" as="geometry" />
        </mxCell>
        <mxCell id="-o6msmimUm7vwaIAHr0_-44" style="edgeStyle=orthogonalEdgeStyle;rounded=0;orthogonalLoop=1;jettySize=auto;html=1;exitX=0.5;exitY=1;exitDx=0;exitDy=0;" parent="1" source="-o6msmimUm7vwaIAHr0_-38" target="-o6msmimUm7vwaIAHr0_-39" edge="1">
          <mxGeometry relative="1" as="geometry" />
        </mxCell>
        <mxCell id="-o6msmimUm7vwaIAHr0_-45" style="edgeStyle=orthogonalEdgeStyle;rounded=0;orthogonalLoop=1;jettySize=auto;html=1;exitX=0.5;exitY=1;exitDx=0;exitDy=0;entryX=0.5;entryY=0;entryDx=0;entryDy=0;" parent="1" source="-o6msmimUm7vwaIAHr0_-38" target="-o6msmimUm7vwaIAHr0_-40" edge="1">
          <mxGeometry relative="1" as="geometry" />
        </mxCell>
        <mxCell id="-o6msmimUm7vwaIAHr0_-46" style="edgeStyle=orthogonalEdgeStyle;rounded=0;orthogonalLoop=1;jettySize=auto;html=1;exitX=0.5;exitY=1;exitDx=0;exitDy=0;entryX=0.5;entryY=0;entryDx=0;entryDy=0;" parent="1" source="-o6msmimUm7vwaIAHr0_-38" target="-o6msmimUm7vwaIAHr0_-41" edge="1">
          <mxGeometry relative="1" as="geometry" />
        </mxCell>
        <mxCell id="-o6msmimUm7vwaIAHr0_-47" style="edgeStyle=orthogonalEdgeStyle;rounded=0;orthogonalLoop=1;jettySize=auto;html=1;exitX=0.5;exitY=1;exitDx=0;exitDy=0;entryX=0.5;entryY=0;entryDx=0;entryDy=0;" parent="1" source="-o6msmimUm7vwaIAHr0_-38" target="-o6msmimUm7vwaIAHr0_-42" edge="1">
          <mxGeometry relative="1" as="geometry" />
        </mxCell>
        <mxCell id="-o6msmimUm7vwaIAHr0_-38" value="管理员模块" style="rounded=0;whiteSpace=wrap;html=1;" parent="1" vertex="1">
          <mxGeometry x="-50" y="250" width="150" height="40" as="geometry" />
        </mxCell>
        <mxCell id="-o6msmimUm7vwaIAHr0_-39" value="查&lt;div&gt;看&lt;/div&gt;&lt;div&gt;所&lt;/div&gt;&lt;div&gt;有&lt;/div&gt;&lt;div&gt;问&lt;/div&gt;&lt;div&gt;卷&lt;/div&gt;" style="rounded=0;whiteSpace=wrap;html=1;" parent="1" vertex="1">
          <mxGeometry x="-50" y="370" width="30" height="100" as="geometry" />
        </mxCell>
        <mxCell id="-o6msmimUm7vwaIAHr0_-40" value="删&lt;div&gt;除&lt;/div&gt;&lt;div&gt;用&lt;/div&gt;&lt;div&gt;户&lt;/div&gt;&lt;div&gt;问&lt;/div&gt;&lt;div&gt;卷&lt;/div&gt;" style="rounded=0;whiteSpace=wrap;html=1;" parent="1" vertex="1">
          <mxGeometry x="-10" y="370" width="30" height="100" as="geometry" />
        </mxCell>
        <mxCell id="-o6msmimUm7vwaIAHr0_-41" value="查&lt;div&gt;看&lt;/div&gt;&lt;div&gt;所&lt;/div&gt;&lt;div&gt;有&lt;/div&gt;&lt;div&gt;用&lt;/div&gt;&lt;div&gt;户&lt;/div&gt;" style="rounded=0;whiteSpace=wrap;html=1;" parent="1" vertex="1">
          <mxGeometry x="30" y="370" width="30" height="100" as="geometry" />
        </mxCell>
        <mxCell id="-o6msmimUm7vwaIAHr0_-42" value="删&lt;div&gt;除&lt;/div&gt;&lt;div&gt;用&lt;/div&gt;&lt;div&gt;户&lt;/div&gt;" style="rounded=0;whiteSpace=wrap;html=1;" parent="1" vertex="1">
          <mxGeometry x="70" y="370" width="30" height="100" as="geometry" />
        </mxCell>
        <mxCell id="756B_G3Txo1k5tEtxXgT-1" value="查&lt;div&gt;看&lt;/div&gt;&lt;div&gt;问&lt;/div&gt;&lt;div&gt;卷&lt;/div&gt;" style="rounded=0;whiteSpace=wrap;html=1;" vertex="1" parent="1">
          <mxGeometry x="240" y="370" width="30" height="100" as="geometry" />
        </mxCell>
      </root>
    </mxGraphModel>
  </diagram>
</mxfile>
